PathFileType	4	(X/Y/Z)	23_coords_data.trc
DataRate	CameraRate	NumFrames	NumMarkers	Units	OrigDataRate	OrigDataStartFrame	OrigNumFrames
30.0	30.0	5	21	m	30.0	42	62
Frame#	Time	THUMB_TIP	THUMB_IP	THUMB_MCP	THUMB_CMC	INDEX_TIP	INDEX_DIP	INDEX_PIP	INDEX_MCP	MIDDLE_TIP	MIDDLE_DIP	MIDDLE_PIP	MIDDLE_MCP	RING_TIP	RING_DIP	RING_PIP	RING_MCP	PINKY_TIP	PINKY_DIP	PINKY_PIP	PINKY_MCP	WRIST
X1	Y1	Z1	X2	Y2	Z2	X3	Y3	Z3	X4	Y4	Z4	X5	Y5	Z5	X6	Y6	Z6	X7	Y7	Z7	X8	Y8	Z8	X9	Y9	Z9	X10	Y10	Z10	X11	Y11	Z11	X12	Y12	Z12	X13	Y13	Z13	X14	Y14	Z14	X15	Y15	Z15	X16	Y16	Z16	X17	Y17	Z17	X18	Y18	Z18	X19	Y19	Z19	X20	Y20	Z20	X21	Y21	Z21
40	1.3666666666666607	0.5082982002777031	-0.016515599531347847	-0.16780899781670922	0.5018248918112236	-0.020303858051883505	-0.14608929766041345	0.4890166904002074	-0.026265574890385057	-0.11835433941360207	0.47914339760571933	-0.026699214435818575	-0.07485468371221815	0.5843178465519204	0.016875963308626618	-0.15122459522994292	0.56749272934269	0.0183501375066224	-0.14468684016190747	0.5444556190417696	0.020019508257852925	-0.1347613888735193	0.5085620133796676	0.013178926142409564	-0.11288693795708737	0.5973492992262953	0.023702232519805744	-0.1253517304702304	0.580352178586839	0.028683727693083805	-0.12157249829869476	0.5530134877747028	0.034512912361188586	-0.1133247021819398	0.5141637225973441	0.02373267447721983	-0.09407294543536893	0.5964506679695721	0.02796410212920497	-0.10372687678885928	0.5797727739165058	0.03293259707188845	-0.09901923322129536	0.5562736140918527	0.03720756830885552	-0.09196982988069147	0.5206228110345401	0.02606338939218611	-0.07649248024834254	0.5920294055649372	0.030823622116738947	-0.07907226039895088	0.5758107288077734	0.03185269289356796	-0.07369680343391904	0.5555845268712198	0.030621873223101392	-0.06820154573654436	0.5228451640995616	0.01872323983681734	-0.05885060461574976	0.4622830810018609	-0.023011742144276925	-0.051989820119430985
41	1.3999999999999937	0.5082361050327229	-0.01660539685412854	-0.16777501984263404	0.5018430888373304	-0.020412960017399562	-0.1460349230930068	0.48908189911411903	-0.026345424718700716	-0.1182720360058176	0.4792548466148945	-0.02676249544642717	-0.07476174881777942	0.5844401538145987	0.02023524934941401	-0.15223112808493244	0.5678106022197922	0.020233045710087327	-0.14505770429293174	0.5449759146984177	0.020466301295455236	-0.1345442619150481	0.5093341559588336	0.0127415691716799	-0.11255268076304348	0.5982510216573204	0.028284852783827974	-0.125908789577046	0.5809298944719611	0.03143848829266649	-0.12166224555796423	0.5533558770745383	0.03517983124698354	-0.11299705845872576	0.514821696669349	0.023249815680607466	-0.09378925821803297	0.5973641239659516	0.032115746666756206	-0.10352993564686974	0.5803068861484412	0.035293609942977255	-0.0986358756723148	0.5565681965779634	0.037670200331533565	-0.0914939981459556	0.5211279382838967	0.025581549947336524	-0.07624363887351593	0.592265865090245	0.03434808573512882	-0.07781557399514671	0.5759534845025535	0.03358648048450397	-0.07268466793436934	0.5558035435457229	0.03086886043542081	-0.06744955191797897	0.5232078370392959	0.018237884830237583	-0.05856913393186247	0.4622830810018609	-0.023011742144276925	-0.051989820119430985
42	1.4333333333333271	0.508227478769971	-0.016488392608638325	-0.167722899778326	0.5018961645118103	-0.020350415186876414	-0.14597435404833314	0.48918563271582804	-0.026321697072312245	-0.11819655402550933	0.47933825289718274	-0.026809144894147763	-0.07469159447687479	0.5844537484784506	0.022750910580214168	-0.15270654476108958	0.5680200601999589	0.021681178629281872	-0.14517065973552556	0.5453659812207701	0.020852486190857666	-0.13430255008171854	0.509900009671484	0.012478553064257714	-0.11226444217617293	0.5987072455210712	0.031579809529029834	-0.1261012667278153	0.5812659528908624	0.03339197973535213	-0.12157165851840701	0.5536079475813587	0.03566660447503156	-0.11266826733340851	0.5152981999162901	0.022952733003893222	-0.09351445238561928	0.5978704246660193	0.03490930261216285	-0.10321792152238174	0.5806429139324802	0.03677071256860309	-0.09824318264482601	0.556820476883892	0.037899447138333486	-0.09107398252646182	0.5215089411537792	0.02524668433495003	-0.07598345994365219	0.5923166290696519	0.03661945978601433	-0.0768345689427663	0.5760557891267353	0.03458855478334233	-0.0718888122543545	0.5560145827016449	0.03088875151169479	-0.06684168239888	0.5234774592489011	0.01787941000500881	-0.058299078464286946	0.46228308100186083	-0.023011742144276925	-0.051989820119430985
43	1.4666666666666603	0.508191512402384	-0.016129660166701254	-0.1676872348242029	0.5019145159317429	-0.02007339979387357	-0.1459376087800469	0.4892508008790033	-0.026145458871723593	-0.11816027234153792	0.47937625223478425	-0.026804727818198648	-0.07466373623199041	0.5843787243102972	0.02453168254770377	-0.152854288852189	0.5680797403971192	0.02278574303904113	-0.14515397596049073	0.5455416631181897	0.021297975544297354	-0.13411624732410055	0.5102158437562577	0.012408369420154997	-0.11205502606675033	0.5988623704464384	0.033736536934956374	-0.12611398422031495	0.5813894119343692	0.034692479467930415	-0.12144687647470198	0.5537102800752743	0.03606580218863198	-0.11242528048332412	0.5155555453653143	0.022841170337878913	-0.09330792573365687	0.598076269662252	0.0365823661155098	-0.10300352165343218	0.5807967626578795	0.03764072347313652	-0.09797375849902823	0.5569543418628728	0.03806235056861085	-0.09079453986283936	0.5217295196386644	0.025071529424804062	-0.07578883097313549	0.5922784358726094	0.037916576081494346	-0.07626079089692528	0.5761005248373627	0.035118736035378295	-0.07141855116597551	0.5561313570664257	0.030905699905960482	-0.0664895873693554	0.5236404604928372	0.01765913494888882	-0.05813772484160373	0.46228308100186083	-0.023011742144276925	-0.051989820119430985
44	1.4999999999999936	0.5081414032259735	-0.01565287842263008	-0.16765136643504608	0.501903603217738	-0.01970648053191204	-0.14591066357159466	0.48927257188712603	-0.025921168855810528	-0.11814999541389537	0.4793917601043383	-0.026768132128779043	-0.07465813167218649	0.5843069008482761	0.025734333863663195	-0.15281823569814124	0.5680833998669137	0.023599925237174135	-0.14505664335359603	0.545615089676618	0.021710139159083375	-0.13393847899198907	0.5103673303668711	0.0124753265971147	-0.11189421001822952	0.5988958916817558	0.03499961270287788	-0.12599776295140963	0.5814168864002687	0.035513949286818614	-0.12128397124534507	0.5537397129582105	0.03640813612044236	-0.11219639455159436	0.515671930705075	0.022870254594649975	-0.09312501182454791	0.5981452225502355	0.03743225473964451	-0.10280931005729999	0.5808541228338981	0.03808687985953085	-0.09775071968526028	0.5570093531801021	0.03820355430525446	-0.09056787023458057	0.5218344333968581	0.0250345611981585	-0.0756004565372308	0.592257169747846	0.03845140664384272	-0.07592476316992647	0.5761286364915759	0.03532164360451129	-0.0711211188951053	0.5561913217336836	0.030909155321029003	-0.0662379389483021	0.5237153690761907	0.017570148550502873	-0.05797556348091104	0.46228308100186094	-0.023011742144276925	-0.051989820119430985
